<svg width="1440" height="227" xmlns="http://www.w3.org/2000/svg">

 <g>
  <title>Layer 1</title>
  <path stroke="null" id="svg_1" d="m0,102.2846l48,-20.73676c48,-21.12618 144,-62.01555 240,-72.72468c96,-10.70912 192,10.70912 288,36.31366c96,25.99396 192,57.14777 288,46.73072c96,-10.02763 192,-62.59969 288,-51.89057c96,10.70912 192,82.75231 240,119.45539l48,36.31366l0,31.15381l-48,0c-48,0 -144,0 -240,0c-96,0 -192,0 -288,0c-96,0 -192,0 -288,0c-96,0 -192,0 -288,0c-96,0 -192,0 -240,0l-48,0l0,-124.61524z" fill="#E2E0FF"/>
 </g>
</svg>