<?xml version="1.0" standalone="no"?>
<svg xmlns:xlink="http://www.w3.org/1999/xlink" id="wave" style="transform:rotate(0deg); transition: 0.3s" viewBox="0 0 1440 200" version="1.1" xmlns="http://www.w3.org/2000/svg"><defs><linearGradient id="sw-gradient-0" x1="0" x2="0" y1="1" y2="0"><stop stop-color="rgba(243, 106, 62, 1)" offset="0%"/><stop stop-color="rgba(255, 179, 11, 1)" offset="100%"/></linearGradient></defs><path style="transform:translate(0, 0px); opacity:1" fill="url(#sw-gradient-0)" d="M0,180L21.8,153.3C43.6,127,87,73,131,70C174.5,67,218,113,262,123.3C305.5,133,349,107,393,90C436.4,73,480,67,524,80C567.3,93,611,127,655,130C698.2,133,742,107,785,86.7C829.1,67,873,53,916,46.7C960,40,1004,40,1047,60C1090.9,80,1135,120,1178,113.3C1221.8,107,1265,53,1309,50C1352.7,47,1396,93,1440,100C1483.6,107,1527,73,1571,56.7C1614.5,40,1658,40,1702,60C1745.5,80,1789,120,1833,140C1876.4,160,1920,160,1964,160C2007.3,160,2051,160,2095,153.3C2138.2,147,2182,133,2225,116.7C2269.1,100,2313,80,2356,80C2400,80,2444,100,2487,113.3C2530.9,127,2575,133,2618,120C2661.8,107,2705,73,2749,73.3C2792.7,73,2836,107,2880,113.3C2923.6,120,2967,100,3011,90C3054.5,80,3098,80,3120,80L3141.8,80L3141.8,200L3120,200C3098.2,200,3055,200,3011,200C2967.3,200,2924,200,2880,200C2836.4,200,2793,200,2749,200C2705.5,200,2662,200,2618,200C2574.5,200,2531,200,2487,200C2443.6,200,2400,200,2356,200C2312.7,200,2269,200,2225,200C2181.8,200,2138,200,2095,200C2050.9,200,2007,200,1964,200C1920,200,1876,200,1833,200C1789.1,200,1745,200,1702,200C1658.2,200,1615,200,1571,200C1527.3,200,1484,200,1440,200C1396.4,200,1353,200,1309,200C1265.5,200,1222,200,1178,200C1134.5,200,1091,200,1047,200C1003.6,200,960,200,916,200C872.7,200,829,200,785,200C741.8,200,698,200,655,200C610.9,200,567,200,524,200C480,200,436,200,393,200C349.1,200,305,200,262,200C218.2,200,175,200,131,200C87.3,200,44,200,22,200L0,200Z"/></svg>