<?xml version="1.0" standalone="no"?>
<svg xmlns:xlink="http://www.w3.org/1999/xlink" id="wave" style="transform:rotate(0deg); transition: 0.3s" viewBox="0 0 1440 100" version="1.1" xmlns="http://www.w3.org/2000/svg"><defs><linearGradient id="sw-gradient-0" x1="0" x2="0" y1="1" y2="0"><stop stop-color="rgba(226, 224, 255, 1)" offset="0%"/><stop stop-color="rgba(226, 224, 255, 1)" offset="100%"/></linearGradient></defs><path style="transform:translate(0, 0px); opacity:1" fill="url(#sw-gradient-0)" d="M0,90L21.8,76.7C43.6,63,87,37,131,35C174.5,33,218,57,262,61.7C305.5,67,349,53,393,45C436.4,37,480,33,524,40C567.3,47,611,63,655,65C698.2,67,742,53,785,43.3C829.1,33,873,27,916,23.3C960,20,1004,20,1047,30C1090.9,40,1135,60,1178,56.7C1221.8,53,1265,27,1309,25C1352.7,23,1396,47,1440,50C1483.6,53,1527,37,1571,28.3C1614.5,20,1658,20,1702,30C1745.5,40,1789,60,1833,70C1876.4,80,1920,80,1964,80C2007.3,80,2051,80,2095,76.7C2138.2,73,2182,67,2225,58.3C2269.1,50,2313,40,2356,40C2400,40,2444,50,2487,56.7C2530.9,63,2575,67,2618,60C2661.8,53,2705,37,2749,36.7C2792.7,37,2836,53,2880,56.7C2923.6,60,2967,50,3011,45C3054.5,40,3098,40,3120,40L3141.8,40L3141.8,100L3120,100C3098.2,100,3055,100,3011,100C2967.3,100,2924,100,2880,100C2836.4,100,2793,100,2749,100C2705.5,100,2662,100,2618,100C2574.5,100,2531,100,2487,100C2443.6,100,2400,100,2356,100C2312.7,100,2269,100,2225,100C2181.8,100,2138,100,2095,100C2050.9,100,2007,100,1964,100C1920,100,1876,100,1833,100C1789.1,100,1745,100,1702,100C1658.2,100,1615,100,1571,100C1527.3,100,1484,100,1440,100C1396.4,100,1353,100,1309,100C1265.5,100,1222,100,1178,100C1134.5,100,1091,100,1047,100C1003.6,100,960,100,916,100C872.7,100,829,100,785,100C741.8,100,698,100,655,100C610.9,100,567,100,524,100C480,100,436,100,393,100C349.1,100,305,100,262,100C218.2,100,175,100,131,100C87.3,100,44,100,22,100L0,100Z"/></svg>